# xmcd
#
# Track frame offsets:
#	150
#	18649
#	40874
#	58915
#	73578
#	86047
#	97126
#	116463
#	135172
#	154319
#	167191
#	182039
#
# Disc length: 2665 seconds
#
# Revision: 0
# Processed by: cddbd v1.5.1PL0 Copyright (c) Steve Scherf et al.
# Submitted via: dBpowerAMP V4.0
#
DISCID=a50a670c
DTITLE=Alejandro Pico - Recuento UNO
DYEAR=2003
DGENRE=Trova
TTITLE0=Una historia mas
TTITLE1=Y sin embargo
TTITLE2=Tú
TTITLE3=No me conformo
TTITLE4=Soy tú, de tí
TTITLE5=El tremendo viaje por la republica mexicana
TTITLE6=Suplico tu perdon
TTITLE7=México
TTITLE8=El último de los bohemios
TTITLE9=Mi locura celestial
TTITLE10=Si dividen vencerán
TTITLE11=Zumba que zumba
EXTD=TROVA
EXTT0=
EXTT1=
EXTT2=
EXTT3=
EXTT4=
EXTT5=
EXTT6=
EXTT7=
EXTT8=
EXTT9=
EXTT10=
EXTT11=
PLAYORDER=
